<svg width="92" height="30" viewBox="0 0 92 30" fill="none" xmlns="http://www.w3.org/2000/svg">
<path d="M36.56 22L41.7 8H43.88L49.02 22H46.88L42.78 10.4L38.66 22H36.56ZM38.88 18.54L39.44 16.94H46.02L46.58 18.54H38.88ZM50.9147 26.4V11.92H52.7147L52.9147 13.48C53.128 13.1733 53.3947 12.8867 53.7147 12.62C54.0347 12.34 54.4147 12.1133 54.8547 11.94C55.308 11.7667 55.8347 11.68 56.4347 11.68C57.3947 11.68 58.2347 11.9133 58.9547 12.38C59.688 12.8467 60.2547 13.48 60.6547 14.28C61.068 15.0667 61.2747 15.9667 61.2747 16.98C61.2747 17.9933 61.068 18.9 60.6547 19.7C60.2414 20.4867 59.668 21.1067 58.9347 21.56C58.2147 22.0133 57.3747 22.24 56.4147 22.24C55.628 22.24 54.9347 22.0867 54.3347 21.78C53.7347 21.46 53.2614 21.02 52.9147 20.46V26.4H50.9147ZM56.0947 20.5C56.708 20.5 57.248 20.3533 57.7147 20.06C58.1947 19.7667 58.568 19.3533 58.8347 18.82C59.1147 18.2867 59.2547 17.6667 59.2547 16.96C59.2547 16.2533 59.1147 15.64 58.8347 15.12C58.568 14.5867 58.1947 14.1733 57.7147 13.88C57.248 13.5733 56.708 13.42 56.0947 13.42C55.468 13.42 54.9147 13.5733 54.4347 13.88C53.968 14.1733 53.6014 14.5867 53.3347 15.12C53.068 15.64 52.9347 16.2533 52.9347 16.96C52.9347 17.6667 53.068 18.2867 53.3347 18.82C53.6014 19.3533 53.968 19.7667 54.4347 20.06C54.9147 20.3533 55.468 20.5 56.0947 20.5ZM63.61 26.4V11.92H65.41L65.61 13.48C65.8233 13.1733 66.09 12.8867 66.41 12.62C66.73 12.34 67.11 12.1133 67.55 11.94C68.0033 11.7667 68.53 11.68 69.13 11.68C70.09 11.68 70.93 11.9133 71.65 12.38C72.3833 12.8467 72.95 13.48 73.35 14.28C73.7633 15.0667 73.97 15.9667 73.97 16.98C73.97 17.9933 73.7633 18.9 73.35 19.7C72.9367 20.4867 72.3633 21.1067 71.63 21.56C70.91 22.0133 70.07 22.24 69.11 22.24C68.3233 22.24 67.63 22.0867 67.03 21.78C66.43 21.46 65.9567 21.02 65.61 20.46V26.4H63.61ZM68.79 20.5C69.4033 20.5 69.9433 20.3533 70.41 20.06C70.89 19.7667 71.2633 19.3533 71.53 18.82C71.81 18.2867 71.95 17.6667 71.95 16.96C71.95 16.2533 71.81 15.64 71.53 15.12C71.2633 14.5867 70.89 14.1733 70.41 13.88C69.9433 13.5733 69.4033 13.42 68.79 13.42C68.1633 13.42 67.61 13.5733 67.13 13.88C66.6633 14.1733 66.2967 14.5867 66.03 15.12C65.7633 15.64 65.63 16.2533 65.63 16.96C65.63 17.6667 65.7633 18.2867 66.03 18.82C66.2967 19.3533 66.6633 19.7667 67.13 20.06C67.61 20.3533 68.1633 20.5 68.79 20.5ZM76.3053 22V7.6H78.3053V22H76.3053ZM85.6114 22.24C84.6514 22.24 83.7981 22.02 83.0514 21.58C82.3047 21.14 81.7181 20.5267 81.2914 19.74C80.8781 18.9533 80.6714 18.04 80.6714 17C80.6714 15.9333 80.8781 15.0067 81.2914 14.22C81.7181 13.42 82.3047 12.8 83.0514 12.36C83.7981 11.9067 84.6647 11.68 85.6514 11.68C86.6381 11.68 87.4847 11.9 88.1914 12.34C88.8981 12.78 89.4447 13.3667 89.8314 14.1C90.2181 14.82 90.4114 15.62 90.4114 16.5C90.4114 16.6333 90.4047 16.78 90.3914 16.94C90.3914 17.0867 90.3847 17.2533 90.3714 17.44H82.1314V16.02H88.4114C88.3714 15.18 88.0914 14.5267 87.5714 14.06C87.0514 13.58 86.4047 13.34 85.6314 13.34C85.0847 13.34 84.5847 13.4667 84.1314 13.72C83.6781 13.96 83.3114 14.32 83.0314 14.8C82.7647 15.2667 82.6314 15.86 82.6314 16.58V17.14C82.6314 17.8867 82.7647 18.52 83.0314 19.04C83.3114 19.5467 83.6781 19.9333 84.1314 20.2C84.5847 20.4533 85.0781 20.58 85.6114 20.58C86.2514 20.58 86.7781 20.44 87.1914 20.16C87.6047 19.88 87.9114 19.5 88.1114 19.02H90.1114C89.9381 19.6333 89.6447 20.1867 89.2314 20.68C88.8181 21.16 88.3047 21.54 87.6914 21.82C87.0914 22.1 86.3981 22.24 85.6114 22.24Z" fill="#161616"/>
<path d="M20.7733 0C20.8431 0 20.9129 0 20.9867 0C21.1579 2.11566 20.3504 3.69648 19.369 4.84126C18.406 5.97813 17.0873 7.08075 14.9545 6.91345C14.8123 4.82809 15.6211 3.36451 16.6012 2.22237C17.5102 1.15795 19.1766 0.210776 20.7733 0Z" fill="black"/>
<path d="M27.2298 22.0208C27.2298 22.0419 27.2298 22.0604 27.2298 22.0801C26.6304 23.8954 25.7754 25.4512 24.7321 26.895C23.7796 28.2058 22.6124 29.9697 20.5284 29.9697C18.7276 29.9697 17.5314 28.8118 15.6858 28.7802C13.7335 28.7485 12.6599 29.7484 10.8749 30C10.6707 30 10.4665 30 10.2663 30C8.95549 29.8103 7.89766 28.7723 7.12701 27.8369C4.85458 25.0731 3.09855 21.5031 2.77185 16.9346C2.77185 16.4867 2.77185 16.0401 2.77185 15.5922C2.91017 12.3225 4.4989 9.66411 6.61061 8.37574C7.72508 7.69072 9.25716 7.10713 10.9631 7.36797C11.6943 7.48126 12.4412 7.73156 13.0959 7.97922C13.7164 8.21766 14.4923 8.64053 15.2274 8.61813C15.7253 8.60364 16.2207 8.34412 16.7226 8.16101C18.1927 7.63012 19.6339 7.0215 21.5335 7.30737C23.8165 7.65251 25.4368 8.66687 26.438 10.2319C24.5068 11.461 22.98 13.3132 23.2408 16.4761C23.4727 19.3493 25.1431 21.0302 27.2298 22.0208Z" fill="black"/>
</svg>
