<svg width="18" height="17" viewBox="0 0 18 17" fill="none" xmlns="http://www.w3.org/2000/svg">
<path d="M16.1864 8.26506C15.9674 8.26506 15.7574 8.35209 15.6026 8.507C15.4477 8.66191 15.3608 8.87201 15.3608 9.09109V14.0473C15.3608 14.2663 15.2738 14.4764 15.1189 14.6313C14.9641 14.7863 14.7541 14.8733 14.5352 14.8733H2.97679C2.75783 14.8733 2.54784 14.7863 2.39301 14.6313C2.23818 14.4764 2.15119 14.2663 2.15119 14.0473V2.48287C2.15119 2.2638 2.23818 2.05369 2.39301 1.89878C2.54784 1.74387 2.75783 1.65684 2.97679 1.65684H7.93038C8.14934 1.65684 8.35933 1.56982 8.51416 1.41491C8.66899 1.26 8.75597 1.04989 8.75597 0.830817C8.75597 0.611741 8.66899 0.401638 8.51416 0.246727C8.35933 0.0918172 8.14934 0.00478959 7.93038 0.00478959H2.97679C2.31991 0.00478959 1.68992 0.265873 1.22544 0.730603C0.760947 1.19533 0.5 1.82564 0.5 2.48287V14.0473C0.5 14.7045 0.760947 15.3348 1.22544 15.7995C1.68992 16.2643 2.31991 16.5253 2.97679 16.5253H14.5352C15.192 16.5253 15.822 16.2643 16.2865 15.7995C16.751 15.3348 17.0119 14.7045 17.0119 14.0473V9.09109C17.0119 8.87201 16.925 8.66191 16.7701 8.507C16.6153 8.35209 16.4053 8.26506 16.1864 8.26506ZM3.80239 8.89285V12.3952C3.80239 12.6143 3.88937 12.8244 4.0442 12.9793C4.19903 13.1342 4.40903 13.2212 4.62799 13.2212H8.12852C8.23717 13.2219 8.34488 13.201 8.44547 13.1599C8.54606 13.1188 8.63755 13.0582 8.71469 12.9817L14.4278 7.25731L16.7725 4.96095C16.8499 4.88416 16.9113 4.7928 16.9532 4.69215C16.9952 4.59149 17.0167 4.48352 17.0167 4.37448C17.0167 4.26543 16.9952 4.15746 16.9532 4.0568C16.9113 3.95614 16.8499 3.86479 16.7725 3.788L13.272 0.244338C13.1952 0.166915 13.1039 0.105464 13.0033 0.0635272C12.9027 0.0215909 12.7948 0 12.6858 0C12.5768 0 12.4689 0.0215909 12.3683 0.0635272C12.2677 0.105464 12.1764 0.166915 12.0996 0.244338L9.77146 2.582L4.04181 8.30637C3.9653 8.38355 3.90476 8.47509 3.86367 8.57573C3.82259 8.67637 3.80176 8.78413 3.80239 8.89285ZM12.6858 1.99552L15.0223 4.33317L13.8499 5.50613L11.5135 3.16847L12.6858 1.99552ZM5.45358 9.23152L10.3494 4.33317L12.6858 6.67083L7.79003 11.5692H5.45358V9.23152Z" fill="#21BA21"/>
</svg>
