<svg width="19" height="19" viewBox="0 0 19 19" fill="none" xmlns="http://www.w3.org/2000/svg">
<g clip-path="url(#clip0_208_1709)">
<path d="M13.8274 13.8287C12.5098 14.8331 10.9053 15.3896 9.2487 15.4167C3.85286 15.4167 0.769531 9.25 0.769531 9.25C1.72836 7.46313 3.05824 5.90197 4.66995 4.67125M7.62995 3.26833C8.16054 3.14414 8.70377 3.08205 9.2487 3.08333C14.6445 3.08333 17.7279 9.25 17.7279 9.25C17.26 10.1254 16.7019 10.9495 16.0629 11.709M10.8829 10.8842C10.6712 11.1114 10.4159 11.2936 10.1322 11.42C9.84853 11.5464 9.54231 11.6143 9.23181 11.6198C8.92131 11.6253 8.61289 11.5682 8.32494 11.4519C8.03699 11.3356 7.77542 11.1625 7.55583 10.9429C7.33624 10.7233 7.16313 10.4617 7.04682 10.1738C6.93051 9.88581 6.8734 9.57739 6.87887 9.26689C6.88435 8.95639 6.95232 8.65017 7.07871 8.36651C7.2051 8.08284 7.38733 7.82754 7.61453 7.61583" stroke="#161616" strokeWidth="1.54167" strokeLinecap="round" strokeLinejoin="round"/>
<path d="M0.769531 0.770813L17.7279 17.7291" stroke="#161616" strokeWidth="1.54167" strokeLinecap="round" strokeLinejoin="round"/>
</g>
<defs>
<clipPath id="clip0_208_1709">
<rect width="18.5" height="18.5" fill="white"/>
</clipPath>
</defs>
</svg>
