<svg width="127" height="30" viewBox="0 0 127 30" fill="none" xmlns="http://www.w3.org/2000/svg">
<path d="M36.46 22V8H45.16V9.64H38.46V14.18H44.06V15.78H38.46V22H36.46ZM49.7977 22.24C48.971 22.24 48.2843 22.1 47.7377 21.82C47.191 21.54 46.7843 21.1667 46.5177 20.7C46.251 20.22 46.1177 19.7067 46.1177 19.16C46.1177 18.4933 46.291 17.9267 46.6377 17.46C46.9843 16.98 47.4777 16.6133 48.1177 16.36C48.7577 16.1067 49.5243 15.98 50.4177 15.98H53.0377C53.0377 15.3933 52.951 14.9067 52.7777 14.52C52.6043 14.1333 52.3443 13.8467 51.9977 13.66C51.6643 13.46 51.2377 13.36 50.7177 13.36C50.1177 13.36 49.6043 13.5067 49.1777 13.8C48.751 14.08 48.4843 14.5 48.3777 15.06H46.3777C46.4577 14.3533 46.6977 13.7533 47.0977 13.26C47.511 12.7533 48.0377 12.3667 48.6777 12.1C49.3177 11.82 49.9977 11.68 50.7177 11.68C51.6643 11.68 52.4577 11.8467 53.0977 12.18C53.7377 12.5133 54.2177 12.9867 54.5377 13.6C54.871 14.2 55.0377 14.92 55.0377 15.76V22H53.2977L53.1377 20.3C52.991 20.5667 52.8177 20.82 52.6177 21.06C52.4177 21.3 52.1777 21.5067 51.8977 21.68C51.631 21.8533 51.3177 21.9867 50.9577 22.08C50.611 22.1867 50.2243 22.24 49.7977 22.24ZM50.1777 20.62C50.6043 20.62 50.991 20.5333 51.3377 20.36C51.6843 20.1867 51.9777 19.9533 52.2177 19.66C52.471 19.3533 52.6577 19.0133 52.7777 18.64C52.911 18.2533 52.9843 17.86 52.9977 17.46V17.4H50.6177C50.0443 17.4 49.5777 17.4733 49.2177 17.62C48.871 17.7533 48.6177 17.94 48.4577 18.18C48.2977 18.42 48.2177 18.7 48.2177 19.02C48.2177 19.3533 48.291 19.64 48.4377 19.88C48.5977 20.1067 48.8243 20.2867 49.1177 20.42C49.411 20.5533 49.7643 20.62 50.1777 20.62ZM62.2505 22.24C61.2771 22.24 60.4105 22.02 59.6505 21.58C58.8905 21.1267 58.2905 20.5067 57.8505 19.72C57.4238 18.9333 57.2105 18.02 57.2105 16.98C57.2105 15.9267 57.4238 15.0067 57.8505 14.22C58.2905 13.42 58.8905 12.8 59.6505 12.36C60.4105 11.9067 61.2771 11.68 62.2505 11.68C63.4771 11.68 64.5038 12 65.3305 12.64C66.1571 13.28 66.6838 14.1467 66.9105 15.24H64.8305C64.6971 14.6533 64.3905 14.2 63.9105 13.88C63.4438 13.56 62.8838 13.4 62.2305 13.4C61.6971 13.4 61.2038 13.54 60.7505 13.82C60.2971 14.0867 59.9305 14.4867 59.6505 15.02C59.3838 15.54 59.2505 16.1867 59.2505 16.96C59.2505 17.5333 59.3305 18.0467 59.4905 18.5C59.6505 18.94 59.8638 19.3133 60.1305 19.62C60.4105 19.9267 60.7305 20.16 61.0905 20.32C61.4505 20.4667 61.8305 20.54 62.2305 20.54C62.6705 20.54 63.0638 20.4733 63.4105 20.34C63.7705 20.1933 64.0705 19.98 64.3105 19.7C64.5638 19.42 64.7371 19.0867 64.8305 18.7H66.9105C66.6838 19.7667 66.1571 20.6267 65.3305 21.28C64.5038 21.92 63.4771 22.24 62.2505 22.24ZM73.8106 22.24C72.8506 22.24 71.9973 22.02 71.2506 21.58C70.504 21.14 69.9173 20.5267 69.4906 19.74C69.0773 18.9533 68.8706 18.04 68.8706 17C68.8706 15.9333 69.0773 15.0067 69.4906 14.22C69.9173 13.42 70.504 12.8 71.2506 12.36C71.9973 11.9067 72.864 11.68 73.8506 11.68C74.8373 11.68 75.684 11.9 76.3906 12.34C77.0973 12.78 77.644 13.3667 78.0306 14.1C78.4173 14.82 78.6106 15.62 78.6106 16.5C78.6106 16.6333 78.604 16.78 78.5906 16.94C78.5906 17.0867 78.584 17.2533 78.5706 17.44H70.3306V16.02H76.6106C76.5706 15.18 76.2906 14.5267 75.7706 14.06C75.2506 13.58 74.604 13.34 73.8306 13.34C73.284 13.34 72.784 13.4667 72.3306 13.72C71.8773 13.96 71.5106 14.32 71.2306 14.8C70.964 15.2667 70.8306 15.86 70.8306 16.58V17.14C70.8306 17.8867 70.964 18.52 71.2306 19.04C71.5106 19.5467 71.8773 19.9333 72.3306 20.2C72.784 20.4533 73.2773 20.58 73.8106 20.58C74.4506 20.58 74.9773 20.44 75.3906 20.16C75.804 19.88 76.1106 19.5 76.3106 19.02H78.3106C78.1373 19.6333 77.844 20.1867 77.4306 20.68C77.0173 21.16 76.504 21.54 75.8906 21.82C75.2906 22.1 74.5973 22.24 73.8106 22.24ZM86.3327 22.24C85.786 22.24 85.286 22.16 84.8327 22C84.3927 21.8533 84.006 21.6467 83.6727 21.38C83.3393 21.1133 83.0593 20.8067 82.8327 20.46L82.6327 22H80.8327V7.6H82.8327V13.5C83.1527 12.9933 83.5993 12.5667 84.1727 12.22C84.7593 11.86 85.4793 11.68 86.3327 11.68C87.2927 11.68 88.1393 11.9133 88.8727 12.38C89.606 12.8333 90.1727 13.46 90.5727 14.26C90.986 15.0467 91.1927 15.9533 91.1927 16.98C91.1927 17.98 90.986 18.88 90.5727 19.68C90.1727 20.48 89.606 21.1067 88.8727 21.56C88.1393 22.0133 87.2927 22.24 86.3327 22.24ZM86.0127 20.5C86.626 20.5 87.166 20.3533 87.6327 20.06C88.1127 19.7667 88.486 19.3533 88.7527 18.82C89.0327 18.2867 89.1727 17.6667 89.1727 16.96C89.1727 16.2533 89.0327 15.64 88.7527 15.12C88.486 14.5867 88.1127 14.1733 87.6327 13.88C87.166 13.5733 86.626 13.42 86.0127 13.42C85.386 13.42 84.8327 13.5733 84.3527 13.88C83.886 14.1733 83.5193 14.5867 83.2527 15.12C82.986 15.64 82.8527 16.2533 82.8527 16.96C82.8527 17.6667 82.986 18.2867 83.2527 18.82C83.5193 19.3533 83.886 19.7667 84.3527 20.06C84.8327 20.3533 85.386 20.5 86.0127 20.5ZM98.128 22.24C97.1813 22.24 96.328 22.02 95.568 21.58C94.8213 21.14 94.228 20.5267 93.788 19.74C93.3613 18.94 93.148 18.02 93.148 16.98C93.148 15.9133 93.368 14.9867 93.808 14.2C94.248 13.4 94.848 12.78 95.608 12.34C96.368 11.9 97.2213 11.68 98.168 11.68C99.128 11.68 99.9813 11.9 100.728 12.34C101.475 12.78 102.061 13.3933 102.488 14.18C102.928 14.9667 103.148 15.8933 103.148 16.96C103.148 18.0267 102.928 18.9533 102.488 19.74C102.061 20.5267 101.468 21.14 100.708 21.58C99.948 22.02 99.088 22.24 98.128 22.24ZM98.128 20.52C98.6746 20.52 99.168 20.3867 99.608 20.12C100.061 19.8533 100.421 19.46 100.688 18.94C100.968 18.4067 101.108 17.7467 101.108 16.96C101.108 16.1733 100.975 15.52 100.708 15C100.441 14.4667 100.081 14.0667 99.628 13.8C99.188 13.5333 98.7013 13.4 98.168 13.4C97.6346 13.4 97.1413 13.5333 96.688 13.8C96.2346 14.0667 95.868 14.4667 95.588 15C95.3213 15.52 95.188 16.1733 95.188 16.96C95.188 17.7467 95.3213 18.4067 95.588 18.94C95.868 19.46 96.228 19.8533 96.668 20.12C97.1213 20.3867 97.608 20.52 98.128 20.52ZM110.101 22.24C109.154 22.24 108.301 22.02 107.541 21.58C106.794 21.14 106.201 20.5267 105.761 19.74C105.334 18.94 105.121 18.02 105.121 16.98C105.121 15.9133 105.341 14.9867 105.781 14.2C106.221 13.4 106.821 12.78 107.581 12.34C108.341 11.9 109.194 11.68 110.141 11.68C111.101 11.68 111.954 11.9 112.701 12.34C113.447 12.78 114.034 13.3933 114.461 14.18C114.901 14.9667 115.121 15.8933 115.121 16.96C115.121 18.0267 114.901 18.9533 114.461 19.74C114.034 20.5267 113.441 21.14 112.681 21.58C111.921 22.02 111.061 22.24 110.101 22.24ZM110.101 20.52C110.647 20.52 111.141 20.3867 111.581 20.12C112.034 19.8533 112.394 19.46 112.661 18.94C112.941 18.4067 113.081 17.7467 113.081 16.96C113.081 16.1733 112.947 15.52 112.681 15C112.414 14.4667 112.054 14.0667 111.601 13.8C111.161 13.5333 110.674 13.4 110.141 13.4C109.607 13.4 109.114 13.5333 108.661 13.8C108.207 14.0667 107.841 14.4667 107.561 15C107.294 15.52 107.161 16.1733 107.161 16.96C107.161 17.7467 107.294 18.4067 107.561 18.94C107.841 19.46 108.201 19.8533 108.641 20.12C109.094 20.3867 109.581 20.52 110.101 20.52ZM123.813 22L119.173 16.48L123.373 11.92H125.793L120.793 17.26V15.76L126.333 22H123.813ZM117.473 22V7.6H119.473V22H117.473Z" fill="#161616"/>
<g clip-path="url(#clip0_6_136)">
<path d="M14 1.70007C-2.48979 2.18307 -4.17147 25.3217 11.9112 28.3001H14H16.0888C32.175 25.3189 30.4861 2.18139 14 1.70007Z" fill="#1877F2"/>
<path d="M16.0889 18.9492H19.2039L19.7966 15.0813H16.0889V12.5711C16.0889 11.5129 16.6069 10.4814 18.2676 10.4814H19.9534V7.18835C16.3431 6.53791 12.0056 6.73587 11.9113 12.1331V15.0813H8.51685V18.9492H11.9113V28.3001H14.0001H16.0889V18.9492Z" fill="#F1F1F1"/>
</g>
<defs>
<clipPath id="clip0_6_136">
<rect width="28" height="28" fill="white" transform="translate(0 1)"/>
</clipPath>
</defs>
</svg>
