<svg width="99" height="30" viewBox="0 0 99 30" fill="none" xmlns="http://www.w3.org/2000/svg">
<path d="M39.7973 22.24C38.4773 22.24 37.324 21.94 36.3373 21.34C35.3507 20.74 34.584 19.9 34.0373 18.82C33.4907 17.74 33.2173 16.48 33.2173 15.04C33.2173 13.6133 33.4907 12.3533 34.0373 11.26C34.5973 10.1667 35.3907 9.31333 36.4173 8.7C37.4573 8.07333 38.684 7.76 40.0973 7.76C41.684 7.76 43.0107 8.14667 44.0773 8.92C45.144 9.68 45.8307 10.74 46.1373 12.1H43.8573C43.6573 11.3267 43.2373 10.72 42.5973 10.28C41.9573 9.82667 41.1173 9.6 40.0773 9.6C39.0907 9.6 38.2307 9.82 37.4973 10.26C36.7773 10.7 36.224 11.3267 35.8373 12.14C35.4507 12.9533 35.2573 13.92 35.2573 15.04C35.2573 16.1733 35.4507 17.1467 35.8373 17.96C36.224 18.7733 36.7707 19.3933 37.4773 19.82C38.184 20.2467 38.9973 20.46 39.9173 20.46C41.3307 20.46 42.3907 20.0533 43.0973 19.24C43.8173 18.4267 44.2373 17.34 44.3573 15.98H40.4973V14.44H46.3773V22H44.5573L44.3773 19.86C44.0573 20.38 43.684 20.82 43.2573 21.18C42.844 21.5267 42.3573 21.7933 41.7973 21.98C41.2373 22.1533 40.5707 22.24 39.7973 22.24ZM53.5108 22.24C52.5641 22.24 51.7108 22.02 50.9508 21.58C50.2041 21.14 49.6108 20.5267 49.1708 19.74C48.7441 18.94 48.5308 18.02 48.5308 16.98C48.5308 15.9133 48.7508 14.9867 49.1908 14.2C49.6308 13.4 50.2308 12.78 50.9908 12.34C51.7508 11.9 52.6041 11.68 53.5508 11.68C54.5108 11.68 55.3641 11.9 56.1108 12.34C56.8574 12.78 57.4441 13.3933 57.8708 14.18C58.3108 14.9667 58.5308 15.8933 58.5308 16.96C58.5308 18.0267 58.3108 18.9533 57.8708 19.74C57.4441 20.5267 56.8508 21.14 56.0908 21.58C55.3308 22.02 54.4708 22.24 53.5108 22.24ZM53.5108 20.52C54.0574 20.52 54.5508 20.3867 54.9908 20.12C55.4441 19.8533 55.8041 19.46 56.0708 18.94C56.3508 18.4067 56.4908 17.7467 56.4908 16.96C56.4908 16.1733 56.3574 15.52 56.0908 15C55.8241 14.4667 55.4641 14.0667 55.0108 13.8C54.5708 13.5333 54.0841 13.4 53.5508 13.4C53.0174 13.4 52.5241 13.5333 52.0708 13.8C51.6174 14.0667 51.2508 14.4667 50.9708 15C50.7041 15.52 50.5708 16.1733 50.5708 16.96C50.5708 17.7467 50.7041 18.4067 50.9708 18.94C51.2508 19.46 51.6108 19.8533 52.0508 20.12C52.5041 20.3867 52.9908 20.52 53.5108 20.52ZM65.4834 22.24C64.5368 22.24 63.6834 22.02 62.9234 21.58C62.1768 21.14 61.5834 20.5267 61.1434 19.74C60.7168 18.94 60.5034 18.02 60.5034 16.98C60.5034 15.9133 60.7234 14.9867 61.1634 14.2C61.6034 13.4 62.2034 12.78 62.9634 12.34C63.7234 11.9 64.5768 11.68 65.5234 11.68C66.4834 11.68 67.3368 11.9 68.0834 12.34C68.8301 12.78 69.4168 13.3933 69.8434 14.18C70.2834 14.9667 70.5034 15.8933 70.5034 16.96C70.5034 18.0267 70.2834 18.9533 69.8434 19.74C69.4168 20.5267 68.8234 21.14 68.0634 21.58C67.3034 22.02 66.4434 22.24 65.4834 22.24ZM65.4834 20.52C66.0301 20.52 66.5234 20.3867 66.9634 20.12C67.4168 19.8533 67.7768 19.46 68.0434 18.94C68.3234 18.4067 68.4634 17.7467 68.4634 16.96C68.4634 16.1733 68.3301 15.52 68.0634 15C67.7968 14.4667 67.4368 14.0667 66.9834 13.8C66.5434 13.5333 66.0568 13.4 65.5234 13.4C64.9901 13.4 64.4968 13.5333 64.0434 13.8C63.5901 14.0667 63.2234 14.4667 62.9434 15C62.6768 15.52 62.5434 16.1733 62.5434 16.96C62.5434 17.7467 62.6768 18.4067 62.9434 18.94C63.2234 19.46 63.5834 19.8533 64.0234 20.12C64.4768 20.3867 64.9634 20.52 65.4834 20.52ZM76.4483 26.64C75.5283 26.64 74.7149 26.52 74.0083 26.28C73.3016 26.0533 72.7549 25.7 72.3683 25.22C71.9816 24.74 71.7883 24.1533 71.7883 23.46C71.7883 23.1 71.8683 22.7333 72.0283 22.36C72.1883 22 72.4483 21.6533 72.8083 21.32C73.1683 20.9867 73.6549 20.6867 74.2683 20.42L75.3883 21.32C74.7083 21.5733 74.2483 21.8733 74.0083 22.22C73.7816 22.58 73.6683 22.9267 73.6683 23.26C73.6683 23.66 73.7883 23.9933 74.0283 24.26C74.2683 24.5267 74.5949 24.7267 75.0083 24.86C75.4349 24.9933 75.9149 25.06 76.4483 25.06C76.9683 25.06 77.4216 24.9867 77.8083 24.84C78.1949 24.6933 78.4949 24.4867 78.7083 24.22C78.9216 23.9533 79.0283 23.64 79.0283 23.28C79.0283 22.8533 78.8683 22.4933 78.5483 22.2C78.2283 21.92 77.6149 21.7533 76.7083 21.7C75.9483 21.6467 75.3016 21.5733 74.7683 21.48C74.2483 21.3867 73.8016 21.2733 73.4283 21.14C73.0683 21.0067 72.7616 20.86 72.5083 20.7C72.2683 20.54 72.0616 20.3733 71.8883 20.2V19.74L73.8883 17.68L75.5083 18.24L73.3283 20.26L73.7483 19.36C73.8949 19.4533 74.0349 19.5467 74.1683 19.64C74.3016 19.72 74.4816 19.7933 74.7083 19.86C74.9349 19.9267 75.2416 19.9867 75.6283 20.04C76.0149 20.0933 76.5216 20.1467 77.1483 20.2C78.0549 20.2667 78.7816 20.4267 79.3283 20.68C79.8883 20.9333 80.2949 21.2733 80.5483 21.7C80.8016 22.1267 80.9283 22.6333 80.9283 23.22C80.9283 23.7933 80.7683 24.34 80.4483 24.86C80.1416 25.38 79.6549 25.8067 78.9883 26.14C78.3349 26.4733 77.4883 26.64 76.4483 26.64ZM76.4483 18.9C75.5949 18.9 74.8683 18.74 74.2683 18.42C73.6816 18.1 73.2283 17.6667 72.9083 17.12C72.6016 16.5733 72.4483 15.9667 72.4483 15.3C72.4483 14.62 72.6016 14.0133 72.9083 13.48C73.2283 12.9333 73.6883 12.5 74.2883 12.18C74.8883 11.8467 75.6083 11.68 76.4483 11.68C77.2883 11.68 78.0016 11.8467 78.5883 12.18C79.1883 12.5 79.6416 12.9333 79.9483 13.48C80.2683 14.0133 80.4283 14.62 80.4283 15.3C80.4283 15.9667 80.2683 16.5733 79.9483 17.12C79.6416 17.6667 79.1883 18.1 78.5883 18.42C78.0016 18.74 77.2883 18.9 76.4483 18.9ZM76.4483 17.3C77.1016 17.3 77.6216 17.1333 78.0083 16.8C78.3949 16.4533 78.5883 15.9533 78.5883 15.3C78.5883 14.6467 78.3949 14.1533 78.0083 13.82C77.6216 13.4733 77.1016 13.3 76.4483 13.3C75.7949 13.3 75.2683 13.4733 74.8683 13.82C74.4683 14.1533 74.2683 14.6467 74.2683 15.3C74.2683 15.9533 74.4683 16.4533 74.8683 16.8C75.2683 17.1333 75.7949 17.3 76.4483 17.3ZM78.0883 13.5L77.6083 11.92H81.7483V13.3L78.0883 13.5ZM83.7545 22V7.6H85.7545V22H83.7545ZM93.0606 22.24C92.1006 22.24 91.2473 22.02 90.5006 21.58C89.754 21.14 89.1673 20.5267 88.7406 19.74C88.3273 18.9533 88.1206 18.04 88.1206 17C88.1206 15.9333 88.3273 15.0067 88.7406 14.22C89.1673 13.42 89.754 12.8 90.5006 12.36C91.2473 11.9067 92.114 11.68 93.1006 11.68C94.0873 11.68 94.934 11.9 95.6406 12.34C96.3473 12.78 96.894 13.3667 97.2806 14.1C97.6673 14.82 97.8606 15.62 97.8606 16.5C97.8606 16.6333 97.854 16.78 97.8406 16.94C97.8406 17.0867 97.834 17.2533 97.8206 17.44H89.5806V16.02H95.8606C95.8206 15.18 95.5406 14.5267 95.0206 14.06C94.5006 13.58 93.854 13.34 93.0806 13.34C92.534 13.34 92.034 13.4667 91.5806 13.72C91.1273 13.96 90.7606 14.32 90.4806 14.8C90.214 15.2667 90.0806 15.86 90.0806 16.58V17.14C90.0806 17.8867 90.214 18.52 90.4806 19.04C90.7606 19.5467 91.1273 19.9333 91.5806 20.2C92.034 20.4533 92.5273 20.58 93.0606 20.58C93.7006 20.58 94.2273 20.44 94.6406 20.16C95.054 19.88 95.3606 19.5 95.5606 19.02H97.5606C97.3873 19.6333 97.094 20.1867 96.6806 20.68C96.2673 21.16 95.754 21.54 95.1406 21.82C94.5406 22.1 93.8473 22.24 93.0606 22.24Z" fill="#161616"/>
<g clip-path="url(#clip0_6_137)">
<path d="M25.0183 12.7396L14.4131 12.7391C13.9448 12.7391 13.5652 13.1187 13.5652 13.587V16.9749C13.5652 17.4431 13.9448 17.8227 14.4131 17.8227H20.3853C19.7313 19.5199 18.5107 20.9412 16.9535 21.8443L19.5 26.2525C23.5849 23.89 26 19.7448 26 15.1045C26 14.4438 25.9513 13.9715 25.8539 13.4397C25.7799 13.0356 25.4291 12.7396 25.0183 12.7396Z" fill="#167EE6"/>
<path d="M13 22.913C10.0773 22.913 7.52589 21.3161 6.15555 18.9531L1.74744 21.4939C3.9907 25.3818 8.19305 28 13 28C15.3581 28 17.5832 27.365 19.5 26.2586V26.2525L16.9535 21.8442C15.7887 22.5198 14.4407 22.913 13 22.913Z" fill="#12B347"/>
<path d="M19.5 26.2586V26.2526L16.9535 21.8442C15.7887 22.5198 14.4408 22.913 13 22.913V28C15.3581 28 17.5833 27.3651 19.5 26.2586Z" fill="#0F993E"/>
<path d="M5.08696 14.9999C5.08696 13.5593 5.48011 12.2115 6.15555 11.0468L1.74743 8.50598C0.634867 10.4167 0 12.6358 0 14.9999C0 17.3641 0.634867 19.5832 1.74743 21.4939L6.15555 18.9531C5.48011 17.7883 5.08696 16.4406 5.08696 14.9999Z" fill="#FFD500"/>
<path d="M13 7.08696C14.9059 7.08696 16.6565 7.76418 18.0239 8.89066C18.3612 9.16853 18.8515 9.14848 19.1605 8.83947L21.561 6.43904C21.9116 6.08845 21.8866 5.51457 21.5121 5.18967C19.2211 3.20214 16.2402 2 13 2C8.19305 2 3.9907 4.61813 1.74744 8.50604L6.15555 11.0468C7.52589 8.68383 10.0773 7.08696 13 7.08696Z" fill="#FF4B26"/>
<path d="M18.0239 8.89066C18.3612 9.16853 18.8516 9.14848 19.1605 8.83947L21.561 6.43904C21.9115 6.08845 21.8865 5.51457 21.5121 5.18967C19.2211 3.20209 16.2402 2 13 2V7.08696C14.9058 7.08696 16.6565 7.76418 18.0239 8.89066Z" fill="#D93F21"/>
</g>
<defs>
<clipPath id="clip0_6_137">
<rect width="26" height="26" fill="white" transform="translate(0 2)"/>
</clipPath>
</defs>
</svg>
