<svg width="214" height="40" viewBox="0 0 214 40" fill="none" xmlns="http://www.w3.org/2000/svg">
<path d="M19.4545 40C30.1993 40 38.9091 31.046 38.9091 20V6C38.9091 4.4087 38.2942 2.88258 37.1996 1.75736C36.1051 0.632141 34.6206 0 33.0727 0L20.4272 0V8.774C20.4272 10.776 20.5459 12.85 21.5673 14.554C22.2985 15.7752 23.2766 16.8204 24.4354 17.6188C25.5941 18.4171 26.9063 18.9499 28.283 19.181L28.6555 19.243C28.8091 19.297 28.9425 19.399 29.0369 19.5347C29.1313 19.6704 29.182 19.8331 29.182 20C29.182 20.1669 29.1313 20.3296 29.0369 20.4653C28.9425 20.601 28.8091 20.703 28.6555 20.757L28.283 20.819C26.2716 21.1568 24.4141 22.1356 22.973 23.6171C21.5318 25.0987 20.5798 27.0082 20.2512 29.076L20.1909 29.459C20.1384 29.6169 20.0392 29.754 19.9071 29.851C19.7751 29.9481 19.6168 30.0003 19.4545 30.0003C19.2922 30.0003 19.1339 29.9481 19.0019 29.851C18.8699 29.754 18.7707 29.6169 18.7182 29.459L18.6579 29.076C18.433 27.6607 17.9147 26.3118 17.1382 25.1205C16.3616 23.9293 15.3449 22.9237 14.157 22.172C12.4995 21.122 10.4821 21 8.53468 21H0.0233154C0.532052 31.581 9.03661 40 19.4545 40Z" fill="#EF502E"/>
<path d="M0 19H8.53471C10.4821 19 12.4995 18.878 14.1571 17.828C15.4528 17.0073 16.5435 15.886 17.3418 14.554C18.3631 12.85 18.4818 10.776 18.4818 8.774V0H5.83636C4.28846 0 2.80396 0.632141 1.70943 1.75736C0.614901 2.88258 0 4.4087 0 6L0 19ZM45.188 2C45.188 2.53043 44.9831 3.03914 44.6182 3.41421C44.2534 3.78929 43.7586 4 43.2426 4C42.7266 4 42.2318 3.78929 41.8669 3.41421C41.5021 3.03914 41.2971 2.53043 41.2971 2C41.2971 1.46957 41.5021 0.960859 41.8669 0.585786C42.2318 0.210714 42.7266 0 43.2426 0C43.7586 0 44.2534 0.210714 44.6182 0.585786C44.9831 0.960859 45.188 1.46957 45.188 2ZM205.937 12.104C211.376 12.104 214 16.009 214 20.532V29.027H208.309V21.54C208.309 19.49 207.581 17.798 205.494 17.798C203.408 17.798 202.712 19.49 202.712 21.54V29.026H197.021V21.54C197.021 19.49 196.326 17.798 194.238 17.798C192.152 17.798 191.424 19.49 191.424 21.54V29.026H185.734V20.531C185.734 16.008 188.357 12.103 193.795 12.103C196.768 12.103 198.918 13.307 199.898 15.292C200.941 13.307 203.218 12.102 205.937 12.102V12.104ZM175.506 23.82C177.34 23.82 178.131 22.095 178.131 20.044V12.754H183.821V20.76C183.821 25.544 181.102 29.515 175.506 29.515C169.909 29.515 167.19 25.545 167.19 20.76V12.754H172.882V20.044C172.882 22.094 173.672 23.82 175.506 23.82ZM158.822 29.547C155.249 29.547 152.941 28.278 151.581 25.805L155.692 23.429C156.261 24.47 157.114 24.991 158.537 24.991C159.707 24.991 160.244 24.568 160.244 24.047C160.244 22.062 151.897 24.08 151.897 17.767C151.897 14.707 154.426 12.234 158.727 12.234C162.489 12.234 164.545 14.121 165.462 15.944L161.351 18.352C161.004 17.376 159.928 16.79 158.853 16.79C158.031 16.79 157.589 17.148 157.589 17.636C157.589 19.654 165.936 17.799 165.936 23.917C165.936 27.334 162.679 29.547 158.822 29.547ZM138.938 36.512H133.246V20.858C133.246 15.878 136.882 12.266 141.941 12.266C146.874 12.266 150.637 16.139 150.637 20.858C150.637 26.065 147.285 29.515 142.257 29.515C141.087 29.515 139.918 29.157 138.938 28.603V36.512ZM141.941 24.015C143.744 24.015 144.945 22.583 144.945 20.89C144.945 19.166 143.744 17.766 141.941 17.766C140.139 17.766 138.938 19.166 138.938 20.891C138.938 22.583 140.139 24.015 141.941 24.015ZM127.545 11.03C125.679 11.03 124.131 9.435 124.131 7.515C124.131 5.595 125.679 4 127.545 4C129.411 4 130.96 5.595 130.96 7.515C130.96 9.435 129.411 11.03 127.545 11.03ZM124.7 12.754H130.391V29.027H124.7V12.754ZM113.78 29.515C108.847 29.515 105.085 25.61 105.085 20.858C105.085 16.139 108.847 12.234 113.78 12.234C118.713 12.234 122.475 16.139 122.475 20.858C122.475 25.61 118.713 29.515 113.78 29.515ZM113.78 24.015C115.582 24.015 116.784 22.583 116.784 20.89C116.784 19.166 115.582 17.734 113.78 17.734C111.977 17.734 110.776 19.166 110.776 20.89C110.776 22.583 111.977 24.015 113.78 24.015ZM94.338 37C90.4179 37 87.5717 35.21 86.1175 32.02L90.8284 29.417C91.3342 30.524 92.2826 31.663 94.2427 31.663C96.299 31.663 97.6579 30.328 97.8165 27.985C97.0578 28.669 95.8555 29.189 94.054 29.189C89.6582 29.189 86.1165 25.707 86.1165 20.825C86.1165 16.107 89.88 12.266 94.8127 12.266C99.8719 12.266 103.508 15.879 103.508 20.858V27.302C103.508 33.16 99.5547 37 94.338 37ZM94.7174 23.69C96.4245 23.69 97.7212 22.485 97.7212 20.695C97.7212 18.938 96.4255 17.766 94.7174 17.766C93.0414 17.766 91.7136 18.938 91.7136 20.696C91.7136 22.486 93.0414 23.689 94.7174 23.689V23.69ZM76.4632 29.515C71.5305 29.515 67.767 25.61 67.767 20.858C67.767 16.139 71.5305 12.234 76.4632 12.234C81.3949 12.234 85.1584 16.139 85.1584 20.858C85.1584 25.61 81.3959 29.515 76.4632 29.515ZM76.4632 24.015C78.2656 24.015 79.467 22.583 79.467 20.89C79.467 19.166 78.2656 17.734 76.4632 17.734C74.6607 17.734 73.4594 19.166 73.4594 20.89C73.4594 22.583 74.6607 24.015 76.4632 24.015ZM57.4036 7.06V23.494H66.8264V29.027H56.6127C53.0088 29.027 51.5545 27.074 51.5545 23.982V7.06H57.4036Z" fill="#161616"/>
</svg>
